<svg width="17" height="17" viewBox="0 0 17 17" fill="none" xmlns="http://www.w3.org/2000/svg">
<g clip-path="url(#clip0_2_664)">
<path fill-rule="evenodd" clip-rule="evenodd" d="M11.1768 5.83333L10.9138 6.49715L9.74977 9.4355L9.17869 10.877L7.74336 14.5H9.51754L10.2451 12.5326H13.8317L14.572 14.5H16.41L12.9765 5.83333H11.2378H11.1768ZM11.0286 10.4348L10.7939 11.0632H11.5136H13.2956L12.0448 7.7136L11.0286 10.4348ZM9.93725 5.34224C9.96396 5.27481 9.99577 5.21045 10.0321 5.14954H6.82912V2.5H5.33603V5.14954H0.950836V6.49715H4.72469C3.76065 8.29015 2.16176 10.0146 0.410034 10.9283C0.739218 11.2138 1.22124 11.7391 1.45636 12.0931C2.96121 11.1795 4.31321 9.72912 5.33603 8.07316V13.1667H6.82912V8.01606C7.22954 8.65256 7.67751 9.26169 8.16213 9.82292L8.72999 8.38955C8.21194 7.79052 7.75634 7.14699 7.39343 6.49715H9.47971L9.93725 5.34224Z" fill="white"/>
</g>
<defs>
<clipPath id="clip0_2_664">
<rect width="16" height="16" fill="white" transform="translate(0.410034 0.5)"/>
</clipPath>
</defs>
</svg>
